REM DIRINDEX 1\2,1\3\5,1\3\6,1\4\7,1\4\8
REM DIRNAME cjc139,folder01,folder02,folder03,folder04,folder05,folder06,folder07
TITLE ""
FILE "EG_E1.5_22.mp3" MP3
  TRACK 01 AUDIO
    TITLE "0:"
    INDEX 01 00:00:00
  TRACK 02 AUDIO
    TITLE "2:cjc139_0743"
    INDEX 01 00:00:17
  TRACK 03 AUDIO
    TITLE "0:"
    INDEX 01 00:01:60
  TRACK 04 AUDIO
    TITLE "2:cjc139_0744"
    INDEX 01 00:03:10
  TRACK 05 AUDIO
    TITLE "0:"
    INDEX 01 00:05:34
  TRACK 06 AUDIO
    TITLE "2:cjc139_0745"
    INDEX 01 00:06:57
  TRACK 07 AUDIO
    TITLE "0:"
    INDEX 01 00:08:60
  TRACK 08 AUDIO
    TITLE "2:cjc139_0746"
    INDEX 01 00:10:08
  TRACK 09 AUDIO
    TITLE "0:"
    INDEX 01 00:11:70
  TRACK 10 AUDIO
    TITLE "2:cjc139_0747"
    INDEX 01 00:13:18
  TRACK 11 AUDIO
    TITLE "0:"
    INDEX 01 00:15:19
  TRACK 12 AUDIO
    TITLE "2:cjc139_0748"
    INDEX 01 00:16:42
  TRACK 13 AUDIO
    TITLE "0:"
    INDEX 01 00:18:46
  TRACK 14 AUDIO
    TITLE "2:cjc139_0749"
    INDEX 01 00:19:67
  TRACK 15 AUDIO
    TITLE "0:"
    INDEX 01 00:22:19
  TRACK 16 AUDIO
    TITLE "2:cjc139_0750"
    INDEX 01 00:23:40
  TRACK 17 AUDIO
    TITLE "0:"
    INDEX 01 00:27:26
  TRACK 18 AUDIO
    TITLE "2:cjc139_0751"
    INDEX 01 00:28:47
  TRACK 19 AUDIO
    TITLE "0:"
    INDEX 01 00:32:00
  TRACK 20 AUDIO
    TITLE "2:cjc139_0752"
    INDEX 01 00:33:21
  TRACK 21 AUDIO
    TITLE "0:"
    INDEX 01 00:35:33
  TRACK 22 AUDIO
    TITLE "2:cjc139_0753"
    INDEX 01 00:36:54
  TRACK 23 AUDIO
    TITLE "0:"
    INDEX 01 00:39:52
  TRACK 24 AUDIO
    TITLE "2:cjc139_0754"
    INDEX 01 00:40:73
  TRACK 25 AUDIO
    TITLE "0:"
    INDEX 01 00:42:70
  TRACK 26 AUDIO
    TITLE "2:cjc139_0755"
    INDEX 01 00:44:16
  TRACK 27 AUDIO
    TITLE "0:"
    INDEX 01 00:46:70
  TRACK 28 AUDIO
    TITLE "2:cjc139_0756"
    INDEX 01 00:48:14
  TRACK 29 AUDIO
    TITLE "0:"
    INDEX 01 00:50:54
  TRACK 30 AUDIO
    TITLE "2:cjc139_0757"
    INDEX 01 00:52:02
  TRACK 31 AUDIO
    TITLE "0:"
    INDEX 01 00:53:74
  TRACK 32 AUDIO
    TITLE "2:cjc139_0758"
    INDEX 01 00:55:20
  TRACK 33 AUDIO
    TITLE "0:"
    INDEX 01 00:57:11
  TRACK 34 AUDIO
    TITLE "2:cjc139_0759"
    INDEX 01 00:58:32
  TRACK 35 AUDIO
    TITLE "0:"
    INDEX 01 01:00:13
  TRACK 36 AUDIO
    TITLE "2:cjc139_0760"
    INDEX 01 01:01:34
  TRACK 37 AUDIO
    TITLE "0:"
    INDEX 01 01:04:52
  TRACK 38 AUDIO
    TITLE "2:cjc139_0761"
    INDEX 01 01:05:73
  TRACK 39 AUDIO
    TITLE "0:"
    INDEX 01 01:08:23
  TRACK 40 AUDIO
    TITLE "2:cjc139_0762"
    INDEX 01 01:09:46
  TRACK 41 AUDIO
    TITLE "0:"
    INDEX 01 01:13:14
  TRACK 42 AUDIO
    TITLE "2:cjc139_0763"
    INDEX 01 01:14:35
  TRACK 43 AUDIO
    TITLE "0:"
    INDEX 01 01:16:34
  TRACK 44 AUDIO
    TITLE "2:cjc139_0764"
    INDEX 01 01:17:57
  TRACK 45 AUDIO
    TITLE "0:"
    INDEX 01 01:19:72
  TRACK 46 AUDIO
    TITLE "2:cjc139_0765"
    INDEX 01 01:21:20
  TRACK 47 AUDIO
    TITLE "0:"
    INDEX 01 01:23:34
  TRACK 48 AUDIO
    TITLE "2:cjc139_0766"
    INDEX 01 01:24:53
  TRACK 49 AUDIO
    TITLE "0:"
    INDEX 01 01:26:23
  TRACK 50 AUDIO
    TITLE "2:cjc139_0767"
    INDEX 01 01:27:44
  TRACK 51 AUDIO
    TITLE "0:"
    INDEX 01 01:31:08
  TRACK 52 AUDIO
    TITLE "2:cjc139_0768"
    INDEX 01 01:32:29
  TRACK 53 AUDIO
    TITLE "0:"
    INDEX 01 01:35:61
  TRACK 54 AUDIO
    TITLE "2:cjc139_0769"
    INDEX 01 01:37:07
  TRACK 55 AUDIO
    TITLE "0:"
    INDEX 01 01:40:58
  TRACK 56 AUDIO
    TITLE "2:cjc139_0770"
    INDEX 01 01:42:06
  TRACK 57 AUDIO
    TITLE "0:"
    INDEX 01 01:45:47
  TRACK 58 AUDIO
    TITLE "2:cjc139_0771"
    INDEX 01 01:46:65
  TRACK 59 AUDIO
    TITLE "0:"
    INDEX 01 01:49:49
  TRACK 60 AUDIO
    TITLE "2:cjc139_0772"
    INDEX 01 01:50:70
  TRACK 61 AUDIO
    TITLE "0:"
    INDEX 01 01:54:13
  TRACK 62 AUDIO
    TITLE "2:cjc139_0773"
    INDEX 01 01:55:34
  TRACK 63 AUDIO
    TITLE "0:"
    INDEX 01 01:58:44
  TRACK 64 AUDIO
    TITLE "2:cjc139_0774"
    INDEX 01 01:59:65
  TRACK 65 AUDIO
    TITLE "0:"
    INDEX 01 02:04:04
  TRACK 66 AUDIO
    TITLE "2:cjc139_0775"
    INDEX 01 02:05:25
  TRACK 67 AUDIO
    TITLE "0:"
    INDEX 01 02:08:41
  TRACK 68 AUDIO
    TITLE "2:cjc139_0776"
    INDEX 01 02:09:62
  TRACK 69 AUDIO
    TITLE "0:"
    INDEX 01 02:13:67
